<svg xmlns="http://www.w3.org/2000/svg" version="1.1" xmlns:xlink="http://www.w3.org/1999/xlink" xmlns:svgjs="http://svgjs.dev/svgjs" width="1440" height="250" preserveAspectRatio="none" viewBox="0 0 1440 250"><g mask="url(&quot;#SvgjsMask1027&quot;)" fill="none"><rect width="1440" height="250" x="0" y="0" fill="url(&quot;#SvgjsLinearGradient1028&quot;)"></rect><path d="M27 250L277 0L400 0L150 250z" fill="url(&quot;#SvgjsLinearGradient1029&quot;)"></path><path d="M239.60000000000002 250L489.6 0L528.6 0L278.6 250z" fill="url(&quot;#SvgjsLinearGradient1029&quot;)"></path><path d="M479.20000000000005 250L729.2 0L1021.7 0L771.7 250z" fill="url(&quot;#SvgjsLinearGradient1029&quot;)"></path><path d="M714.8000000000001 250L964.8000000000001 0L1248.3000000000002 0L998.3000000000001 250z" fill="url(&quot;#SvgjsLinearGradient1029&quot;)"></path><path d="M1412 250L1162 0L938.5 0L1188.5 250z" fill="url(&quot;#SvgjsLinearGradient1030&quot;)"></path><path d="M1164.4 250L914.4000000000001 0L624.9000000000001 0L874.9000000000001 250z" fill="url(&quot;#SvgjsLinearGradient1030&quot;)"></path><path d="M936.8 250L686.8 0L455.79999999999995 0L705.8 250z" fill="url(&quot;#SvgjsLinearGradient1030&quot;)"></path><path d="M695.1999999999999 250L445.19999999999993 0L388.19999999999993 0L638.1999999999999 250z" fill="url(&quot;#SvgjsLinearGradient1030&quot;)"></path><path d="M1272.1543046202607 250L1440 82.15430462026075L1440 250z" fill="url(&quot;#SvgjsLinearGradient1029&quot;)"></path><path d="M0 250L167.84569537973925 250L 0 82.15430462026075z" fill="url(&quot;#SvgjsLinearGradient1030&quot;)"></path></g><defs><mask id="SvgjsMask1027"><rect width="1440" height="250" fill="#ffffff"></rect></mask><linearGradient x1="100%" y1="50%" x2="0%" y2="50%" gradientUnits="userSpaceOnUse" id="SvgjsLinearGradient1028"><stop stop-color="#0e2a47" offset="0"></stop><stop stop-color="#00459e" offset="1"></stop></linearGradient><linearGradient x1="0%" y1="100%" x2="100%" y2="0%" id="SvgjsLinearGradient1029"><stop stop-color="rgba(15, 70, 185, 0.2)" offset="0"></stop><stop stop-opacity="0" stop-color="rgba(15, 70, 185, 0.2)" offset="0.66"></stop></linearGradient><linearGradient x1="100%" y1="100%" x2="0%" y2="0%" id="SvgjsLinearGradient1030"><stop stop-color="rgba(15, 70, 185, 0.2)" offset="0"></stop><stop stop-opacity="0" stop-color="rgba(15, 70, 185, 0.2)" offset="0.66"></stop></linearGradient></defs></svg>