<?xml version="1.0" standalone="no"?><svg xmlns="http://www.w3.org/2000/svg" viewBox="0 0 1440 320"><path fill="#000b76" fill-opacity="1" d="M0,0L34.3,26.7C68.6,53,137,107,206,160C274.3,213,343,267,411,288C480,309,549,299,617,261.3C685.7,224,754,160,823,144C891.4,128,960,160,1029,192C1097.1,224,1166,256,1234,250.7C1302.9,245,1371,203,1406,181.3L1440,160L1440,320L1405.7,320C1371.4,320,1303,320,1234,320C1165.7,320,1097,320,1029,320C960,320,891,320,823,320C754.3,320,686,320,617,320C548.6,320,480,320,411,320C342.9,320,274,320,206,320C137.1,320,69,320,34,320L0,320Z"></path></svg>